<?xml version="1.0" encoding="UTF-8" standalone="no"?>
<!-- Created with Inkscape (http://www.inkscape.org/) -->

<svg
   xmlns:dc="http://purl.org/dc/elements/1.1/"
   xmlns:cc="http://creativecommons.org/ns#"
   xmlns:rdf="http://www.w3.org/1999/02/22-rdf-syntax-ns#"
   xmlns:svg="http://www.w3.org/2000/svg"
   xmlns="http://www.w3.org/2000/svg"
   xmlns:sodipodi="http://sodipodi.sourceforge.net/DTD/sodipodi-0.dtd"
   xmlns:inkscape="http://www.inkscape.org/namespaces/inkscape"
   width="150px"
   height="150px"
   viewBox="0 0 150 150"
   version="1.1"
   id="SVGRoot"
   inkscape:version="0.92.1 r15371"
   sodipodi:docname="projekt.svg">
  <sodipodi:namedview
     id="base"
     pagecolor="#ffffff"
     bordercolor="#666666"
     borderopacity="1.0"
     inkscape:pageopacity="0.0"
     inkscape:pageshadow="2"
     inkscape:zoom="2.4135911"
     inkscape:cx="35.057521"
     inkscape:cy="79.036507"
     inkscape:document-units="px"
     inkscape:current-layer="layer1"
     showgrid="false"
     inkscape:window-width="1366"
     inkscape:window-height="705"
     inkscape:window-x="-8"
     inkscape:window-y="-8"
     inkscape:window-maximized="1" />
  <defs
     id="defs10">
    <filter
       inkscape:label="Evanescent"
       inkscape:menu="Blurs"
       inkscape:menu-tooltip="Blur the contents of objects, preserving the outline and adding progressive transparency at edges"
       style="color-interpolation-filters:sRGB"
       id="filter2507">
      <feGaussianBlur
         result="result6"
         stdDeviation="3"
         in="SourceGraphic"
         id="feGaussianBlur2501" />
      <feColorMatrix
         values="1 0 0 0 0 0 1 0 0 0 0 0 1 0 0 0 0 0 1 0 "
         result="result7"
         in="SourceGraphic"
         id="feColorMatrix2503" />
      <feComposite
         operator="in"
         in="result6"
         in2="result7"
         id="feComposite2505" />
    </filter>
    <filter
       style="color-interpolation-filters:sRGB"
       inkscape:label="Feather"
       id="filter2609">
      <feGaussianBlur
         stdDeviation="0.41"
         result="blur"
         id="feGaussianBlur2601" />
      <feComposite
         in="SourceGraphic"
         in2="blur"
         operator="atop"
         result="composite1"
         id="feComposite2603" />
      <feComposite
         in2="composite1"
         operator="in"
         result="composite2"
         id="feComposite2605" />
      <feComposite
         in2="composite2"
         operator="in"
         result="composite3"
         id="feComposite2607" />
    </filter>
    <filter
       style="color-interpolation-filters:sRGB"
       inkscape:label="Snow"
       id="filter1025">
      <feConvolveMatrix
         order="3 3"
         kernelMatrix="1 1 1 0 0 0 -1 -1 -1"
         preserveAlpha="false"
         divisor="3"
         id="feConvolveMatrix1003" />
      <feMorphology
         operator="dilate"
         radius="1 2.77556e-017"
         id="feMorphology1005" />
      <feGaussianBlur
         stdDeviation="1.6270889487870621"
         result="result0"
         id="feGaussianBlur1007" />
      <feColorMatrix
         values="0 0 0 0 0 0 0 0 0 0 0 0 0 0 0 0 0 0 10 0"
         result="result1"
         id="feColorMatrix1009" />
      <feOffset
         dx="0"
         dy="1"
         result="result5"
         id="feOffset1011" />
      <feDiffuseLighting
         in="result0"
         diffuseConstant="2.26130652"
         surfaceScale="1"
         id="feDiffuseLighting1015">
        <feDistantLight
           azimuth="225"
           elevation="32"
           id="feDistantLight1013" />
      </feDiffuseLighting>
      <feComposite
         in2="result1"
         operator="in"
         result="result2"
         id="feComposite1017" />
      <feColorMatrix
         values="0.4 0 0 0 0.6 0 0.4 0 0 0.6 0 0 0 0 1 0 0 0 1 0"
         result="result4"
         id="feColorMatrix1019" />
      <feComposite
         in2="result5"
         in="result4"
         id="feComposite1021" />
      <feComposite
         in2="SourceGraphic"
         id="feComposite1023" />
    </filter>
    <filter
       style="color-interpolation-filters:sRGB"
       inkscape:label="Snow"
       id="filter1157">
      <feConvolveMatrix
         order="3 3"
         kernelMatrix="1 1 1 0 0 0 -1 -1 -1"
         preserveAlpha="false"
         divisor="3"
         id="feConvolveMatrix1135" />
      <feMorphology
         operator="dilate"
         radius="1 0.1"
         id="feMorphology1137" />
      <feGaussianBlur
         stdDeviation="1.6270889487870621"
         result="result0"
         id="feGaussianBlur1139" />
      <feColorMatrix
         values="0 0 0 0 0 0 0 0 0 0 0 0 0 0 0 0 0 0 10 0"
         result="result1"
         id="feColorMatrix1141" />
      <feOffset
         dx="0"
         dy="1"
         result="result5"
         id="feOffset1143" />
      <feDiffuseLighting
         in="result0"
         diffuseConstant="2.26130652"
         surfaceScale="1"
         id="feDiffuseLighting1147">
        <feDistantLight
           azimuth="225"
           elevation="32"
           id="feDistantLight1145" />
      </feDiffuseLighting>
      <feComposite
         in2="result1"
         operator="in"
         result="result2"
         id="feComposite1149" />
      <feColorMatrix
         values="0.4 0 0 0 0.6 0 0.4 0 0 0.6 0 0 0 0 1 0 0 0 1 0"
         result="result4"
         id="feColorMatrix1151" />
      <feComposite
         in2="result5"
         in="result4"
         id="feComposite1153" />
      <feComposite
         in2="SourceGraphic"
         id="feComposite1155" />
    </filter>
    <filter
       style="color-interpolation-filters:sRGB"
       inkscape:label="Snow"
       id="filter1181">
      <feConvolveMatrix
         order="3 3"
         kernelMatrix="1 1 1 0 0 0 -1 -1 -1"
         preserveAlpha="false"
         divisor="3"
         id="feConvolveMatrix1159" />
      <feMorphology
         operator="dilate"
         radius="1 0.1"
         id="feMorphology1161" />
      <feGaussianBlur
         stdDeviation="1.6270889487870621"
         result="result0"
         id="feGaussianBlur1163" />
      <feColorMatrix
         values="0 0 0 0 0 0 0 0 0 0 0 0 0 0 0 0 0 0 10 0"
         result="result1"
         id="feColorMatrix1165" />
      <feOffset
         dx="0"
         dy="1"
         result="result5"
         id="feOffset1167" />
      <feDiffuseLighting
         in="result0"
         diffuseConstant="2.26130652"
         surfaceScale="1"
         id="feDiffuseLighting1171">
        <feDistantLight
           azimuth="225"
           elevation="32"
           id="feDistantLight1169" />
      </feDiffuseLighting>
      <feComposite
         in2="result1"
         operator="in"
         result="result2"
         id="feComposite1173" />
      <feColorMatrix
         values="0.4 0 0 0 0.6 0 0.4 0 0 0.6 0 0 0 0 1 0 0 0 1 0"
         result="result4"
         id="feColorMatrix1175" />
      <feComposite
         in2="result5"
         in="result4"
         id="feComposite1177" />
      <feComposite
         in2="SourceGraphic"
         id="feComposite1179" />
    </filter>
    <filter
       style="color-interpolation-filters:sRGB"
       inkscape:label="Snow"
       id="filter1133">
      <feConvolveMatrix
         order="3 3"
         kernelMatrix="1 1 1 0 0 0 -1 -1 -1"
         preserveAlpha="false"
         divisor="3"
         id="feConvolveMatrix1111" />
      <feMorphology
         operator="dilate"
         radius="1 0.1"
         id="feMorphology1113" />
      <feGaussianBlur
         stdDeviation="1.6270889487870621"
         result="result0"
         id="feGaussianBlur1115" />
      <feColorMatrix
         values="0 0 0 0 0 0 0 0 0 0 0 0 0 0 0 0 0 0 10 0"
         result="result1"
         id="feColorMatrix1117" />
      <feOffset
         dx="0"
         dy="1"
         result="result5"
         id="feOffset1119" />
      <feDiffuseLighting
         in="result0"
         diffuseConstant="2.26130652"
         surfaceScale="1"
         id="feDiffuseLighting1123">
        <feDistantLight
           azimuth="225"
           elevation="32"
           id="feDistantLight1121" />
      </feDiffuseLighting>
      <feComposite
         in2="result1"
         operator="in"
         result="result2"
         id="feComposite1125" />
      <feColorMatrix
         values="0.4 0 0 0 0.6 0 0.4 0 0 0.6 0 0 0 0 1 0 0 0 1 0"
         result="result4"
         id="feColorMatrix1127" />
      <feComposite
         in2="result5"
         in="result4"
         id="feComposite1129" />
      <feComposite
         in2="SourceGraphic"
         id="feComposite1131" />
    </filter>
  </defs>
  <metadata
     id="metadata13">
    <rdf:RDF>
      <cc:Work
         rdf:about="">
        <dc:format>image/svg+xml</dc:format>
        <dc:type
           rdf:resource="http://purl.org/dc/dcmitype/StillImage" />
        <dc:title></dc:title>
      </cc:Work>
    </rdf:RDF>
  </metadata>
  <g
     id="layer1"
     inkscape:groupmode="layer"
     inkscape:label="Layer 1">
    <g
       id="g437"
       transform="matrix(0.43787139,0,0,0.4739617,-102.89163,0.1557998)">
      <ellipse
         ry="158.3484"
         rx="171.5901"
         cy="157.75505"
         cx="406.62988"
         id="path26"
         style="fill:#000000;stroke:none;stroke-width:1.71209359;stroke-opacity:1" />
      <ellipse
         ry="153.65865"
         rx="165.24513"
         cy="157.47919"
         cx="405.25058"
         id="path26-9"
         style="fill:#ffffff;stroke:none;stroke-width:1.65507388;stroke-opacity:1;filter:url(#filter2507)" />
      <ellipse
         ry="149.01047"
         rx="159.60776"
         cy="158.5688"
         cx="405.15018"
         id="path26-9-7"
         style="fill:#000000;stroke:none;stroke-width:1.60180616;stroke-opacity:1" />
      <path
         sodipodi:nodetypes="cccsccscassscacccccccccccc"
         inkscape:connector-curvature="0"
         id="path1445"
         d="m 363.27375,265.04193 c 9.7123,6.98179 27.0009,12.08993 38.58035,8.76178 2.11157,-0.64069 5.10154,-3.5555 5.10154,-3.5555 0,0.14589 -8.16512,-6.27612 -13.23212,-10.15858 -0.92549,-0.70914 -3.2611,-0.26591 -3.50729,-1.26982 -0.008,-0.84113 3.0104,-3.1491 4.14499,-2.79362 1.10366,0.4268 0.31075,2.05633 1.11596,2.79362 4.52166,4.14018 12.78852,10.41254 12.59442,10.41254 0,0 9.28869,-6.18492 12.71515,-10.0919 0.67572,-0.77048 0.10339,-2.97778 1.48317,-2.56011 2.21329,0.66998 4.07112,1.31226 3.34621,2.77688 -0.59275,1.19763 -2.96295,-0.13225 -3.99358,0.85939 -4.04957,3.89636 -11.98573,10.28556 -11.98573,10.28556 0,0 2.74041,2.95321 4.8117,3.30154 12.87884,2.16588 27.47437,-2.40253 37.78324,-9.14272 5.68506,-0.85382 6.59777,9.91097 6.05808,11.93633 -4.87474,7.98814 -13.64078,8.91172 -23.43518,9.90462 l 6.05807,5.96816 -5.10153,3.93646 -13.07269,-9.01575 -28.69613,0.38095 -12.59441,8.76178 -5.73923,-4.19042 5.89865,-4.95231 -14.66691,-2.92059 c -8.62121,-3.28238 -12.97353,-17.38906 -3.66673,-19.42829 z"
         style="fill:#ff6600;stroke:none;stroke-width:0.36469531px;stroke-linecap:butt;stroke-linejoin:miter;stroke-opacity:1;filter:url(#filter2609)" />
      <g
         transform="matrix(0.88418636,0,0,0.9230516,44.295726,-38.066172)"
         id="g2282">
        <path
           style="fill:#ffffff;stroke:none;stroke-width:0.20574327px;stroke-linecap:butt;stroke-linejoin:miter;stroke-opacity:1"
           d="m 400.55123,317.34082 c 3.25717,-8.01839 5.68793,-20.94913 4.21121,-28.37187 -0.28483,-1.34738 -1.61165,-2.88703 -1.61165,-2.88703 0.0671,-0.0268 -2.92531,6.81561 -4.73499,11.04289 -0.33055,0.77212 -0.1376,2.31115 -0.60056,2.66607 -0.38696,0.15976 -1.4345,-1.51087 -1.26567,-2.36318 0.20151,-0.84394 0.94739,-0.59274 1.29031,-1.28658 1.92569,-3.89623 4.84974,-10.78173 4.84884,-10.64707 0,0 -2.80159,-5.30957 -4.58277,-6.97006 -0.35126,-0.32746 -1.36931,0.47444 -1.17072,-0.55938 0.31857,-1.65834 0.62272,-3.065 1.29306,-2.83073 0.54814,0.19156 -0.0747,2.07978 0.37662,2.6129 1.77337,2.09471 4.67526,6.42851 4.67526,6.42851 0,0 1.37133,-2.4428 1.54127,-3.94362 1.05665,-9.33186 -0.97647,-18.61949 -4.0287,-24.53497 -0.36613,-3.78736 4.59001,-6.39495 5.51916,-6.39201 3.65176,1.91669 4.03554,7.82867 4.4464,14.44135 0,0 6.05022,-10.16273 6.72378,-16.04845 0.67356,-5.88573 3.03987,-7.97549 3.03987,-7.97549 l 0.14498,9.15688 c 0,0 -0.0711,3.99165 -1.71076,4.13694 -1.63966,0.14529 -7.84575,18.97258 -7.84575,18.97258 l 0.0408,19.83786 c 0,0 6.22383,13.64293 7.55814,13.01067 1.33432,-0.63226 2.13659,3.67795 2.13659,3.67795 l 0.0158,7.48108 c 0,0 -1.70156,1.10708 -3.26508,-5.08054 -1.56351,-6.18762 -6.67895,-10.3926 -6.67895,-10.3926 l -1.4122,10.71073 c -1.5503,6.58294 -8.05984,12.18967 -8.9543,6.10717 z"
           id="path1445-9"
           inkscape:connector-curvature="0"
           sodipodi:nodetypes="cccsccscassscaccczcczcczcczcccc" />
        <text
           xml:space="preserve"
           style="font-style:normal;font-variant:normal;font-weight:bold;font-stretch:normal;font-size:25.89167976px;line-height:1.25;font-family:sans-serif;-inkscape-font-specification:'sans-serif Bold';letter-spacing:0px;word-spacing:0px;fill:#ffffff;fill-opacity:1;stroke:none;stroke-width:0.69352716"
           x="371.58896"
           y="208.31764"
           id="text2269"
           transform="scale(0.69352715,1.4419046)"><tspan
             sodipodi:role="line"
             id="tspan2267"
             x="371.58896"
             y="208.31764"
             style="fill:#ffffff;stroke-width:0.69352716">Górski Spływ</tspan></text>
        <text
           xml:space="preserve"
           style="font-style:normal;font-variant:normal;font-weight:bold;font-stretch:normal;font-size:25.89167976px;line-height:1.25;font-family:sans-serif;-inkscape-font-specification:'sans-serif Bold';letter-spacing:0px;word-spacing:0px;fill:#ffffff;fill-opacity:1;stroke:none;stroke-width:0.69352716"
           x="602.42627"
           y="208.29047"
           id="text2273"
           transform="scale(0.69352715,1.4419046)"><tspan
             sodipodi:role="line"
             id="tspan2271"
             x="602.42627"
             y="208.29047"
             style="fill:#ffffff;stroke-width:0.69352716">ajakowy 2017</tspan></text>
      </g>
      <g
         transform="matrix(1.0989301,0,0,1.1410865,-40.579843,-27.488584)"
         id="g2305">
        <g
           id="g79"
           style="filter:url(#filter1025)"
           transform="matrix(0.79725516,0,0,0.74892172,79.057599,14.331654)">
          <g
             id="g84">
            <g
               id="g89">
              <path
                 inkscape:connector-curvature="0"
                 id="path28"
                 d="m 348.79263,106.18067 a 54.642974,56.270437 0 0 0 -54.64307,56.27052 54.642974,56.270437 0 0 0 54.64307,56.2705 54.642974,56.270437 0 0 0 54.64307,-56.2705 54.642974,56.270437 0 0 0 -54.64307,-56.27052 z m -0.75372,10.23138 a 42.960683,45.645949 0 0 1 42.961,45.64492 42.960683,45.645949 0 0 1 -42.961,45.64631 42.960683,45.645949 0 0 1 -42.961,-45.64631 42.960683,45.645949 0 0 1 42.961,-45.64492 z"
                 style="fill:#ff6600;stroke:none;stroke-width:0.69794863;stroke-opacity:1" />
              <path
                 inkscape:connector-curvature="0"
                 id="path28-1"
                 d="m 407.538,50.86504 a 54.642974,56.270437 0 0 0 -54.64307,56.27053 54.642974,56.270437 0 0 0 54.64307,56.2705 54.642974,56.270437 0 0 0 54.64307,-56.2705 A 54.642974,56.270437 0 0 0 407.538,50.86504 Z m -0.75372,10.231379 a 42.960683,45.645949 0 0 1 42.961,45.644931 42.960683,45.645949 0 0 1 -42.961,45.64631 42.960683,45.645949 0 0 1 -42.961,-45.64631 42.960683,45.645949 0 0 1 42.961,-45.644931 z"
                 style="fill:#ff6600;stroke:none;stroke-width:0.69794863;stroke-opacity:1" />
              <path
                 inkscape:connector-curvature="0"
                 id="path28-1-3"
                 d="m 466.21746,107.55365 a 54.642974,56.270437 0 0 0 -54.64307,56.27053 54.642974,56.270437 0 0 0 54.64307,56.2705 54.642974,56.270437 0 0 0 54.64307,-56.2705 54.642974,56.270437 0 0 0 -54.64307,-56.27053 z m -0.75372,10.23137 a 42.960683,45.645949 0 0 1 42.961,45.64494 42.960683,45.645949 0 0 1 -42.961,45.64631 42.960683,45.645949 0 0 1 -42.961,-45.64631 42.960683,45.645949 0 0 1 42.961,-45.64494 z"
                 style="fill:#ff6600;stroke:none;stroke-width:0.69794863;stroke-opacity:1" />
            </g>
          </g>
        </g>
        <g
           id="g2290">
          <text
             id="text1029"
             y="104.78835"
             x="390.07779"
             style="font-style:normal;font-variant:normal;font-weight:bold;font-stretch:normal;font-size:37.33333206px;line-height:1.25;font-family:sans-serif;-inkscape-font-specification:'sans-serif Bold';letter-spacing:0px;word-spacing:0px;fill:#ffffff;fill-opacity:1;stroke:none;filter:url(#filter1157)"
             xml:space="preserve"><tspan
               y="104.78835"
               x="390.07779"
               id="tspan1027"
               sodipodi:role="line">G</tspan></text>
          <text
             id="text1033"
             y="152.61635"
             x="336.8663"
             style="font-style:normal;font-variant:normal;font-weight:bold;font-stretch:normal;font-size:37.33333206px;line-height:1.25;font-family:sans-serif;-inkscape-font-specification:'sans-serif Bold';letter-spacing:0px;word-spacing:0px;fill:#ffffff;fill-opacity:1;stroke:none;filter:url(#filter1181)"
             xml:space="preserve"><tspan
               y="152.61635"
               x="336.8663"
               id="tspan1031"
               sodipodi:role="line">S</tspan></text>
          <text
             id="text1037"
             y="153.81447"
             x="443.6517"
             style="font-style:normal;font-variant:normal;font-weight:bold;font-stretch:normal;font-size:37.33333206px;line-height:1.25;font-family:sans-serif;-inkscape-font-specification:'sans-serif Bold';letter-spacing:0px;word-spacing:0px;fill:#ffffff;fill-opacity:1;stroke:none;filter:url(#filter1133)"
             xml:space="preserve"><tspan
               y="153.81447"
               x="443.6517"
               id="tspan1035"
               sodipodi:role="line">K</tspan></text>
        </g>
      </g>
    </g>
  </g>
</svg>
